<svg class="svg-icon" viewBox="0 0 1024 1024" version="1.1" xmlns="http://www.w3.org/2000/svg"><path d="M788.864 995.776H181.312A181.504 181.504 0 0 1 0 814.464V204.224A178.88 178.88 0 0 1 178.752 25.536h587.264a25.472 25.472 0 1 1 0 50.944H178.752A127.808 127.808 0 0 0 51.072 204.16v610.24c0 71.808 58.496 130.176 130.304 130.176h607.552a130.368 130.368 0 0 0 130.368-130.176v-456.96a25.472 25.472 0 0 1 50.88 0v457.024a181.44 181.44 0 0 1-181.312 181.312z" /><path d="M408.512 638.336a25.472 25.472 0 0 1-18.048-43.52L977.728 7.552a25.536 25.536 0 0 1 36.032 36.096L426.624 630.784a25.408 25.408 0 0 1-18.112 7.552z" /></svg>