<svg class="svg-icon" style="width: 1em; height: 1em;vertical-align: middle;fill: currentColor;overflow: hidden;" viewBox="0 0 1024 1024" version="1.1" xmlns="http://www.w3.org/2000/svg">
    <path d="M511.996587 1020.586667C231.103147 1020.586667 3.413333 792.84224 3.413333 512 3.413333 231.154347 231.103147 3.413333 511.996587 3.413333 792.89344 3.413333 1020.586667 231.10656 1020.586667 512s-227.7376 508.586667-508.59008 508.586667z m0-940.885334C273.24416 79.691093 79.68768 273.24416 79.68768 512c0 238.752427 193.55648 432.295253 432.308907 432.295253 238.75584 0 432.295253-193.55648 432.295253-432.295253 0-238.742187-193.55648-432.308907-432.295253-432.308907v0.01024z" />
    <path d="M512 341.333333c47.146667 0 85.333333-38.186667 85.333333-85.333333s-38.186667-85.333333-85.333333-85.333333-85.333333 38.186667-85.333333 85.333333 38.186667 85.333333 85.333333 85.333333z m0 85.333334c-47.146667 0-85.333333 38.186667-85.333333 85.333333s38.186667 85.333333 85.333333 85.333333 85.333333-38.186667 85.333333-85.333333-38.186667-85.333333-85.333333-85.333333z m0 256c-47.146667 0-85.333333 38.186667-85.333333 85.333333s38.186667 85.333333 85.333333 85.333333 85.333333-38.186667 85.333333-85.333333-38.186667-85.333333-85.333333-85.333333z" />
</svg>