<svg xmlns="http://www.w3.org/2000/svg" width="117" height="96" viewBox="0 0 117 96">
  <g transform="translate(-513 -245)">
    <rect width="20" height="96" rx="10" transform="translate(513 245)" fill="#008093" />
    <rect width="20" height="96" rx="10" transform="translate(610 245)" fill="#008093" />
    <path d="M674.356,659.718l-6.816-6.959.025-.041-3.153-3.153-37.763-38.556A9.724,9.724,0,1,1,640.2,597.071l41.3,41.3,41.3-41.3a9.725,9.725,0,1,1,13.553,13.938L698.558,649.6l-3.121,3.122.024.041-6.817,6.96a10,10,0,0,1-14.288,0Z" transform="translate(-110 -349.012)" fill="#008093" />
    <path d="M662,673.9h-7a4,4,0,0,1-2.177-7.356,10.029,10.029,0,0,0,11.354,0h-.005l.009,0A4,4,0,0,1,662,673.9Z" transform="translate(-87 -382.9)" fill="#008093"/>
  </g>
</svg>